<svg version="1.1" id="Layer_1" xmlns="http://www.w3.org/2000/svg" xmlns:xlink="http://www.w3.org/1999/xlink" x="0px" y="0px"
	 width="100%" viewBox="0 0 1024 1024" enable-background="new 0 0 1024 1024" xml:space="preserve">
<path fill="#000000" opacity="1.000000" stroke="none" 
	d="
M746.282715,575.270325 
	C733.899475,590.886597 721.715698,606.205566 709.579529,621.562073 
	C705.351318,626.912292 704.315002,627.231079 697.983215,624.376160 
	C693.163818,622.203186 688.187866,620.303711 683.588562,617.733276 
	C675.972778,613.477112 671.406799,606.996887 668.185791,598.635376 
	C664.800171,589.846558 665.328186,580.809204 663.709351,571.959106 
	C663.086548,568.554077 662.586670,565.132019 661.937744,561.726257 
	C660.396484,553.636963 658.379944,545.586670 658.550476,537.204102 
	C658.623535,533.613953 658.006287,529.912903 657.103149,526.417114 
	C653.825378,513.730042 653.710388,500.605469 651.481140,487.785645 
	C649.341187,475.478882 648.692261,462.973999 645.927246,450.727814 
	C644.153809,442.873444 643.348816,434.732605 642.863464,426.674774 
	C642.406677,419.091583 640.209900,412.207001 637.146912,405.385498 
	C632.139954,394.234528 627.481384,382.927673 622.539185,371.746979 
	C617.037964,359.301849 611.370483,346.930359 605.799500,334.515991 
	C594.051575,308.337097 582.142395,282.228577 570.644775,255.940063 
	C563.346497,239.253159 538.967285,238.143906 530.466431,250.155136 
	C524.366272,258.774384 524.164062,267.417816 527.244446,276.395996 
	C531.862000,289.854523 537.250122,303.051727 542.430542,316.313202 
	C546.988037,327.979889 551.775391,339.556793 556.340027,351.220764 
	C560.272583,361.269714 563.955811,371.416718 567.945129,381.442413 
	C568.645020,383.201416 570.134155,384.766632 571.561707,386.095978 
	C579.688599,393.663635 582.973511,403.586548 585.342834,413.969543 
	C587.362915,422.822021 587.659546,431.947540 590.001343,440.794586 
	C591.767090,447.465424 592.699707,454.460449 593.093445,461.363068 
	C593.531799,469.048340 596.639954,476.127350 597.245300,483.710541 
	C597.532471,487.307770 598.172363,490.848846 598.726440,494.402008 
	C599.112427,496.877502 599.890747,500.849182 595.469849,501.533508 
	C588.786865,502.567993 586.243408,501.199493 585.171936,496.224304 
	C584.470764,492.969208 583.770691,489.707397 583.258484,486.419250 
	C580.665100,469.769562 578.675049,453.001740 575.369324,436.496521 
	C573.494629,427.136444 573.382141,417.552612 570.702881,408.312378 
	C568.130798,399.441620 560.112732,391.579681 551.342773,390.494202 
	C541.304016,389.251678 531.631409,393.962952 527.145996,402.731506 
	C524.963928,406.997223 524.287292,411.746948 524.290649,416.601349 
	C524.329041,472.433929 524.012634,528.269226 524.511047,584.097473 
	C524.652588,599.956665 531.539551,613.802551 541.881958,626.053345 
	C550.044373,635.721924 561.133118,640.883240 571.449707,647.306885 
	C582.496338,654.184937 593.489502,661.189819 604.691650,667.766541 
	C617.836121,675.483582 630.543335,683.945801 644.013062,691.105591 
	C649.546387,694.046753 650.210754,696.879089 646.391663,701.684326 
	C627.394836,725.586670 608.323242,749.430237 589.442017,773.423584 
	C572.463135,794.999451 555.777283,816.806213 538.747437,838.341309 
	C536.295166,841.442322 533.709839,844.442566 531.282715,847.592163 
	C527.242981,852.834229 524.730286,858.139893 523.964233,865.058533 
	C522.822632,875.369019 519.739197,885.464783 517.476135,895.650574 
	C517.081238,897.427856 516.580688,899.185059 516.264526,900.975525 
	C515.755249,903.859680 514.233215,905.417664 511.186249,905.314148 
	C509.521881,905.257568 507.853424,905.328186 506.186829,905.328247 
	C414.521240,905.330505 322.855621,905.325928 231.190018,905.337524 
	C216.089676,905.339417 204.751678,899.147156 198.188599,885.246033 
	C195.801254,880.189392 195.850845,874.548462 195.761078,869.172607 
	C195.460556,851.177856 195.657928,833.174927 195.642090,815.175171 
	C195.635361,807.533447 194.360168,806.273499 186.535889,806.268799 
	C164.702850,806.255737 142.862671,805.947571 121.039696,806.420227 
	C109.820740,806.663147 93.135078,794.866089 94.581955,780.198730 
	C95.086670,775.082336 95.269341,769.785339 94.537170,764.724426 
	C92.526802,750.828308 108.529037,737.398438 121.726852,737.581421 
	C144.055496,737.890869 166.391708,737.668823 188.724701,737.642639 
	C195.235428,737.635010 195.624268,737.291077 195.630295,730.941223 
	C195.659271,700.441589 195.659271,669.941956 195.627808,639.442322 
	C195.621124,632.957947 194.996979,632.371887 188.390350,632.365540 
	C165.723984,632.343750 143.041122,631.848816 120.397720,632.572327 
	C107.999664,632.968506 92.470123,619.127075 94.514252,606.734131 
	C95.423843,601.219543 94.642105,595.426819 94.636292,589.760315 
	C94.623901,577.673096 106.736504,565.669678 119.018333,565.656067 
	C142.184677,565.630432 165.351074,565.650146 188.517426,565.630737 
	C195.393845,565.625000 195.607315,565.481689 195.616302,558.771729 
	C195.658310,527.438782 195.658844,496.105835 195.633102,464.772888 
	C195.627838,458.380493 194.553513,457.383392 187.930817,457.377441 
	C165.431122,457.357208 142.929916,457.218170 120.432304,457.435699 
	C108.884560,457.547333 93.110687,444.441589 94.542252,431.725647 
	C95.227745,425.636688 94.646873,419.406586 94.662704,413.240479 
	C94.699753,398.813171 109.603622,386.685028 123.984596,389.301788 
	C125.769730,389.626587 127.631081,389.617828 129.457214,389.618927 
	C148.456955,389.630432 167.456726,389.618408 186.456482,389.599335 
	C193.580322,389.592194 195.635437,387.554993 195.640244,380.339874 
	C195.660446,350.006897 195.661057,319.673920 195.638931,289.340942 
	C195.633896,282.442749 194.459290,281.280365 187.416977,281.276306 
	C165.417343,281.263702 143.411835,281.008698 121.420425,281.444305 
	C109.916145,281.672211 99.363274,273.605713 95.345421,264.045349 
	C94.667610,262.432526 94.673012,260.803009 94.668343,259.145752 
	C94.650047,252.645950 95.396545,246.040680 94.489456,239.669571 
	C92.919861,228.645203 107.432846,214.414597 119.307999,214.580933 
	C142.636292,214.907684 165.972656,214.665314 189.305679,214.643539 
	C195.826309,214.637466 195.705048,214.614059 195.679840,208.078262 
	C195.611053,190.245407 195.367828,172.406174 195.736908,154.580719 
	C196.080948,137.964249 201.737274,127.928139 216.716827,121.724678 
	C221.985596,119.542740 228.067215,119.639893 233.889053,119.640259 
	C415.386932,119.651749 596.884827,119.654541 778.382690,119.666519 
	C787.354370,119.667107 796.330505,119.413612 805.267029,120.653862 
	C811.914795,121.576462 816.577026,125.671844 821.310181,129.907364 
	C828.487061,136.329681 830.318115,144.704575 830.321594,153.701431 
	C830.361694,256.200226 830.308105,358.699066 830.448914,461.197662 
	C830.456299,466.605896 828.833801,471.022064 825.498291,474.830505 
	C813.477478,488.555420 802.696228,503.280579 791.174683,517.406616 
	C778.647827,532.765137 766.838318,548.734375 754.485535,564.262207 
	C751.728821,567.727356 749.189331,571.430115 746.282715,575.270325 
M422.437958,672.309082 
	C434.069733,665.299500 445.762543,658.388733 457.316376,651.252930 
	C469.222900,643.899475 482.049835,637.947021 491.727295,627.256287 
	C503.915619,613.791809 510.534424,598.146545 510.668304,580.077637 
	C510.810181,560.928467 510.111450,541.774658 510.044373,522.621887 
	C509.919037,486.826996 509.839630,451.030487 510.075653,415.236847 
	C510.133026,406.529663 506.905701,400.049835 500.426239,394.602875 
	C493.527832,388.803680 475.757202,389.872528 470.219604,397.230225 
	C465.367798,403.676788 463.553192,410.805573 462.328003,418.353271 
	C461.140686,425.667297 460.772095,433.201904 458.739014,440.263947 
	C457.036530,446.177612 456.611328,452.285095 455.797150,458.150726 
	C453.999084,471.104553 450.698059,483.789124 449.386841,496.798706 
	C449.080109,499.841766 447.022125,501.134033 444.312042,501.329437 
	C441.379150,501.540894 438.335327,501.821106 435.351990,499.470917 
	C437.570129,492.467102 437.338318,484.955505 438.838104,477.659332 
	C440.321014,470.445160 441.727386,463.182648 442.532776,455.871460 
	C443.252228,449.340363 444.604126,442.864777 445.703125,436.466827 
	C447.024384,428.775085 448.590576,420.936859 450.108246,413.251678 
	C451.978546,403.780945 454.892578,395.219147 461.406647,388.398438 
	C466.582153,382.979248 468.873993,376.342957 471.479706,369.807190 
	C477.016449,355.919769 482.053040,341.833801 487.470551,327.897614 
	C493.882172,311.404022 500.441071,294.967285 507.016296,278.537994 
	C509.355530,272.693054 510.567688,266.260895 509.152130,260.544281 
	C505.272980,244.878571 491.580505,237.896622 475.514679,244.695496 
	C466.359070,248.570053 463.388580,257.376648 460.110565,265.307800 
	C454.058868,279.949860 447.003632,294.121429 440.798370,308.684753 
	C434.725342,322.937775 427.665070,336.768341 421.504974,350.986572 
	C413.377106,369.746704 405.376251,388.557007 396.483063,406.973877 
	C395.036438,409.969666 393.870880,413.091949 393.414490,416.431702 
	C392.500702,423.118408 391.698242,429.824005 390.606018,436.481781 
	C389.043030,446.009216 388.349640,455.630157 386.647430,465.171631 
	C383.589722,482.311157 381.434662,499.637085 379.590118,516.958374 
	C378.455627,527.612000 376.286255,538.101807 375.051056,548.749207 
	C373.354095,563.376465 371.012360,578.043396 368.618774,592.642578 
	C367.485718,599.553284 364.655670,605.404297 360.140717,610.726807 
	C355.313568,616.417297 348.552704,618.881287 342.265839,621.992004 
	C328.985626,628.563171 315.411987,634.538635 302.029083,640.906433 
	C297.558380,643.033752 292.677643,644.916992 289.090363,648.142090 
	C283.362091,653.291931 279.523407,660.019592 276.471954,667.229858 
	C273.308685,674.704224 271.850159,682.655579 273.828094,690.119751 
	C277.746155,704.905334 285.434906,717.349426 300.183807,724.261597 
	C311.346588,729.493164 322.399109,729.723450 333.702301,725.212708 
	C341.426025,722.130432 348.029388,717.039062 355.262817,713.118042 
	C367.382843,706.548157 378.394073,698.236450 390.537262,691.696289 
	C401.297455,685.900879 411.518280,679.104065 422.437958,672.309082 
M264.435211,211.313232 
	C262.155090,211.684402 259.855591,211.963928 257.597778,212.440765 
	C232.443466,217.753021 219.178299,246.283493 234.184372,268.069489 
	C241.475876,278.655396 251.926254,284.350037 264.410583,284.376038 
	C274.532227,284.397125 283.482452,279.821503 290.570709,272.038971 
	C306.831207,254.185730 300.945709,227.737061 282.116699,217.091644 
	C276.798370,214.084793 271.054535,212.769150 264.435211,211.313232 
M264.442657,735.305481 
	C255.087570,735.421570 246.823517,738.480713 240.013168,744.904724 
	C224.673096,759.374512 223.669968,779.449585 237.154144,795.042908 
	C247.900940,807.470764 264.275055,810.864624 279.162079,804.028564 
	C291.363495,798.425720 301.296204,783.513916 300.465393,771.048279 
	C299.162079,751.493042 283.878754,736.354065 264.442657,735.305481 
M247.096252,567.666565 
	C233.225510,574.676575 225.973785,591.360474 228.695511,606.407288 
	C232.036057,624.875183 255.120667,640.278137 274.745026,633.491028 
	C290.554443,628.023315 305.221436,607.416199 298.117950,587.797607 
	C291.203278,568.700500 267.605377,555.900452 247.096252,567.666565 
M268.828217,458.574341 
	C276.525177,456.739258 283.411316,453.480011 289.418213,448.134125 
	C303.166565,435.898834 303.304565,409.190552 289.274536,397.738098 
	C275.103149,386.170258 260.859955,383.783539 245.207001,392.937286 
	C235.599457,398.555725 226.133469,414.469788 227.503922,424.129547 
	C230.409775,444.611664 244.672516,459.844635 268.828217,458.574341 
z"/>
<path fill="#000000" opacity="1.000000" stroke="none" 
	d="
M567.783325,814.795166 
	C575.804565,804.650879 583.686951,794.848694 591.430176,784.937805 
	C600.111572,773.826233 608.584351,762.551147 617.297302,751.464722 
	C629.702454,735.680298 642.262695,720.017761 654.711853,704.267761 
	C657.303223,700.989380 660.071594,701.030334 663.416077,703.070374 
	C674.589661,709.885742 685.228333,717.580566 697.108704,723.237610 
	C708.437134,728.632019 719.520081,730.074402 731.731201,725.091858 
	C740.444519,721.536438 747.568909,716.646912 752.575256,709.037842 
	C757.552063,701.473633 761.131348,693.568359 760.439453,683.668579 
	C759.914246,676.153870 760.187622,668.928650 756.081299,662.210876 
	C751.193115,654.213989 745.891113,646.750671 736.964050,642.762146 
	C730.504822,639.876221 724.052185,636.973450 717.640381,633.984436 
	C713.990417,632.282837 713.888489,628.439453 717.248962,624.350159 
	C721.572876,619.088684 725.962769,613.878967 730.184326,608.536438 
	C739.252380,597.060547 748.190918,585.482300 757.257263,574.005066 
	C765.884277,563.083984 774.543091,552.186646 783.311340,541.378967 
	C788.343567,535.176331 788.721619,534.929504 795.225830,539.980591 
	C816.652283,556.620178 838.166931,573.151978 859.084717,590.440552 
	C862.291626,593.091064 863.019958,595.084717 860.150757,598.612000 
	C850.305176,610.715881 840.761841,623.065491 831.083252,635.305481 
	C822.339111,646.363708 813.716797,657.522827 804.771973,668.416748 
	C793.942810,681.605469 783.823853,695.346375 773.020020,708.565247 
	C764.532349,718.950256 756.345947,729.645386 748.149353,740.298828 
	C736.844238,754.992676 724.875427,769.181091 713.740295,783.998840 
	C705.279968,795.257141 696.130615,805.953430 687.748840,817.282104 
	C677.915283,830.572876 667.013306,843.067932 656.769653,856.061829 
	C644.846619,871.186096 633.164429,886.500061 621.306763,901.676270 
	C618.855713,904.813293 615.967163,907.586548 613.820129,910.996277 
	C612.108704,913.714233 610.010132,913.483398 607.571350,911.559082 
	C590.519653,898.104675 573.421326,884.709045 556.300476,871.342651 
	C551.334290,867.465454 546.245117,863.746033 541.213562,859.952637 
	C536.578674,856.458496 536.616394,854.354065 540.234070,849.927917 
	C546.953491,841.706970 553.342834,833.216492 559.881165,824.847290 
	C562.432251,821.581909 565.014893,818.341187 567.783325,814.795166 
z"/>
<path fill="#000000" opacity="1.000000" stroke="none" 
	d="
M735.754150,769.752808 
	C747.082153,755.693970 757.684631,741.523987 768.858154,727.788879 
	C776.380737,718.541809 783.463318,708.898254 790.856567,699.519714 
	C801.847351,685.577515 812.882202,671.669678 823.785095,657.659119 
	C825.622437,655.298096 827.471924,655.271729 830.335327,656.632324 
	C830.335327,658.414917 830.335266,660.389343 830.335388,662.363708 
	C830.337769,732.021973 830.223999,801.680603 830.414978,871.338379 
	C830.470825,891.706543 814.113647,905.568359 796.079956,905.450500 
	C743.755249,905.108459 691.426941,905.333496 639.100098,905.275818 
	C637.074585,905.273621 634.470825,906.277893 633.148071,904.029724 
	C631.632507,901.453796 633.485596,899.154236 634.888123,897.194092 
	C637.591858,893.414917 640.453186,889.724121 643.515808,886.230530 
	C652.266113,876.248840 659.948181,865.439026 668.089539,854.984619 
	C676.140869,844.645630 684.379761,834.452942 692.505310,824.171570 
	C703.197388,810.642639 713.842651,797.076782 724.543152,783.554443 
	C728.146729,779.000549 731.857544,774.531311 735.754150,769.752808 
z"/>
<path fill="#000000" opacity="1.000000" stroke="none" 
	d="
M926.332520,507.916870 
	C927.155701,516.046570 921.266113,520.423096 917.459229,525.627563 
	C909.443298,536.586121 900.899902,547.158875 892.570557,557.888123 
	C889.426575,561.938049 886.633240,562.282776 882.473999,558.994202 
	C866.110718,546.056274 849.796265,533.056641 833.408752,520.149658 
	C827.689270,515.644836 821.905823,511.207611 815.963806,507.005096 
	C813.150635,505.015381 813.285217,503.084625 815.094482,500.780731 
	C823.781067,489.719330 832.329651,478.541687 841.309082,467.722290 
	C844.562683,463.801971 847.151123,459.294220 851.528198,456.224274 
	C861.466064,449.254211 871.707336,451.321564 879.983276,457.636993 
	C891.838379,466.683746 903.363037,476.162537 915.183716,485.255524 
	C922.559998,490.929749 927.924927,497.391541 926.332520,507.916870 
z"/>
<path fill="#000000" opacity="1.000000" stroke="none" 
	d="
M542.648682,871.325439 
	C553.730103,880.022644 564.503235,888.531921 575.312500,896.995178 
	C582.609619,902.708618 589.988403,908.317871 597.272827,914.047363 
	C602.729675,918.339539 602.336182,920.305603 595.896057,923.270691 
	C585.379395,928.112549 574.623047,932.449646 564.547363,938.232178 
	C561.594421,939.926941 558.737793,939.823547 555.819946,937.432434 
	C546.077271,929.448730 536.182312,921.649963 526.294250,913.845520 
	C524.612427,912.518066 523.496948,911.158936 523.683289,908.858582 
	C524.393982,900.086853 526.847412,891.638428 528.502441,883.046814 
	C528.937012,880.791077 529.610779,878.583435 529.805420,876.251404 
	C530.127686,872.389404 531.335388,868.837708 534.066345,865.711243 
	C537.409607,866.767029 539.428833,869.669678 542.648682,871.325439 
z"/>
<path fill="#000000" opacity="1.000000" stroke="none" 
	d="
M839.284424,563.718628 
	C825.320007,552.753906 811.636536,542.007996 797.923889,531.299316 
	C795.202881,529.174438 794.668884,526.644531 796.721985,523.968994 
	C799.623230,520.188171 801.991028,515.548523 806.348511,513.485840 
	C812.018921,510.801636 814.369873,516.911743 817.795044,519.417664 
	C828.341614,527.133606 838.467285,535.424438 848.764526,543.481567 
	C858.009460,550.715393 867.233154,557.976929 876.529480,565.144104 
	C881.138428,568.697449 881.823730,570.833252 878.118164,575.431519 
	C867.340393,588.805786 869.967773,587.841064 858.648438,579.075562 
	C852.229248,574.104614 845.916077,568.996704 839.284424,563.718628 
z"/>
<path fill="#000000" opacity="1.000000" stroke="none" 
	d="
M516.747192,939.980286 
	C517.756775,935.368530 518.690613,931.170959 519.714233,926.995422 
	C520.525024,923.688049 523.805969,922.440552 526.497986,924.542725 
	C532.883057,929.528687 539.223755,934.575012 545.476562,939.725403 
	C549.234497,942.820740 549.182495,945.056763 544.955627,947.181519 
	C536.850098,951.255920 528.634216,955.143188 520.287720,958.693115 
	C515.546082,960.709778 514.054993,958.829651 514.341187,953.572327 
	C514.588562,949.028015 515.949585,944.793762 516.747192,939.980286 
z"/>
</svg>