<svg version="1.1" id="Layer_1" xmlns="http://www.w3.org/2000/svg" xmlns:xlink="http://www.w3.org/1999/xlink" x="0px" y="0px"
	 width="100%" viewBox="0 0 177 175" enable-background="new 0 0 177 175" xml:space="preserve">
<path fill="#323232" opacity="1.000000" stroke="none" 
	d="
M1.000001,110.000000 
	C1.000000,96.645775 1.000000,83.291542 1.381413,69.439804 
	C2.804386,66.252647 4.050171,63.622574 4.854901,60.863838 
	C10.804811,40.466602 25.539747,30.106771 44.283188,25.168009 
	C47.146717,28.602844 49.242493,31.826395 52.032097,34.252003 
	C54.537331,36.430336 54.078785,37.631901 52.242607,39.849186 
	C46.722054,46.515572 39.195171,49.738773 30.000626,53.204700 
	C33.331043,56.726261 35.789776,60.632832 39.316460,62.807468 
	C49.444859,69.052887 60.407814,69.797974 71.464073,65.227608 
	C75.974747,63.363007 77.481850,64.868233 79.384315,69.133156 
	C81.887024,74.743675 84.980042,80.877762 89.586906,84.597427 
	C98.905365,92.121307 102.632919,92.464432 106.934776,79.994659 
	C109.035538,73.905182 109.348900,67.199081 110.477203,60.738262 
	C127.661186,70.747055 143.032913,65.231537 146.042191,49.591934 
	C139.875137,46.511295 133.988297,43.570641 128.563293,40.860680 
	C133.517822,37.045498 138.050369,33.555244 143.091248,29.673563 
	C152.078369,32.266541 160.659729,37.721447 165.933258,46.761452 
	C169.762451,53.325569 171.930435,60.858749 174.911377,68.426178 
	C174.936172,79.946785 174.888718,91.001068 174.570282,102.319191 
	C172.559875,109.103317 171.399094,115.847855 168.974930,122.102760 
	C160.999329,142.681656 147.494537,158.419418 126.803398,167.074905 
	C119.428352,170.160004 111.649788,172.280472 103.588066,174.912552 
	C93.067162,174.935593 83.013596,174.887329 72.701828,174.571320 
	C67.181976,172.966553 61.674351,172.229782 56.700153,170.191345 
	C31.715933,159.952728 13.685321,142.720596 4.408496,116.943527 
	C3.540768,114.532410 2.148646,112.310020 1.000001,110.000000 
z"/>
<path fill="#000000" opacity="1.000000" stroke="none" 
	d="
M174.839111,67.959839 
	C171.930435,60.858749 169.762451,53.325569 165.933258,46.761452 
	C160.659729,37.721447 152.078369,32.266541 143.091248,29.673563 
	C138.050369,33.555244 133.517822,37.045498 128.563293,40.860680 
	C133.988297,43.570641 139.875137,46.511295 146.042191,49.591934 
	C143.032913,65.231537 127.661186,70.747055 110.477203,60.738262 
	C109.348900,67.199081 109.035538,73.905182 106.934776,79.994659 
	C102.632919,92.464432 98.905365,92.121307 89.586906,84.597427 
	C84.980042,80.877762 81.887024,74.743675 79.384315,69.133156 
	C77.481850,64.868233 75.974747,63.363007 71.464073,65.227608 
	C60.407814,69.797974 49.444859,69.052887 39.316460,62.807468 
	C35.789776,60.632832 33.331043,56.726261 30.000626,53.204700 
	C39.195171,49.738773 46.722054,46.515572 52.242607,39.849186 
	C54.078785,37.631901 54.537331,36.430336 52.032097,34.252003 
	C49.242493,31.826395 47.146717,28.602844 44.283188,25.168009 
	C25.539747,30.106771 10.804811,40.466602 4.854901,60.863838 
	C4.050171,63.622574 2.804386,66.252647 1.381413,68.971146 
	C1.000000,46.393223 1.000000,23.786448 1.000000,1.000000 
	C33.354008,1.000000 65.708344,1.000000 98.564911,1.366743 
	C98.914757,2.375452 98.931129,3.132110 98.584549,3.642093 
	C93.790848,10.695841 88.947296,17.715706 84.150543,24.693548 
	C79.460838,20.318535 73.589409,16.103428 65.887268,16.055641 
	C59.014000,16.012999 51.957310,16.882008 48.693565,8.083843 
	C47.366695,16.073339 48.767937,22.662380 55.552460,26.243019 
	C61.255272,29.252773 67.624397,31.000000 72.345833,32.792576 
	C68.075287,32.788403 63.661469,36.045853 60.091255,40.152386 
	C55.026081,45.978458 50.144638,51.858170 42.627274,54.923851 
	C58.618866,60.644234 73.199203,61.104652 83.552505,44.265720 
	C80.461914,61.678963 88.319016,76.362968 98.759720,79.208603 
	C103.451904,67.833046 102.050865,56.303947 98.747902,43.861526 
	C117.489891,61.927372 131.918396,59.758114 137.730392,53.382881 
	C131.282745,48.272285 124.778099,43.116505 117.808556,37.592232 
	C129.718613,34.714409 137.879333,26.696045 136.333008,21.438616 
	C130.524094,21.626396 124.780991,22.841331 119.514763,21.751617 
	C110.643524,19.915936 103.372833,22.427574 95.717804,27.965183 
	C98.148346,19.396397 101.241707,12.281814 106.331947,6.037112 
	C107.376190,4.756041 107.468765,2.699239 108.000000,1.000001 
	C130.020889,1.000000 152.041794,1.000000 174.531342,1.468657 
	C174.946365,23.944826 174.892731,45.952335 174.839111,67.959839 
z"/>
<path fill="#323232" opacity="1.000000" stroke="none" 
	d="
M107.550026,1.000001 
	C107.468765,2.699239 107.376190,4.756041 106.331947,6.037112 
	C101.241707,12.281814 98.148346,19.396397 95.717804,27.965183 
	C103.372833,22.427574 110.643524,19.915936 119.514763,21.751617 
	C124.780991,22.841331 130.524094,21.626396 136.333008,21.438616 
	C137.879333,26.696045 129.718613,34.714409 117.808556,37.592232 
	C124.778099,43.116505 131.282745,48.272285 137.730392,53.382881 
	C131.918396,59.758114 117.489891,61.927372 98.747902,43.861526 
	C102.050865,56.303947 103.451904,67.833046 98.759720,79.208603 
	C88.319016,76.362968 80.461914,61.678963 83.552505,44.265720 
	C73.199203,61.104652 58.618866,60.644234 42.627274,54.923851 
	C50.144638,51.858170 55.026081,45.978458 60.091255,40.152386 
	C63.661469,36.045853 68.075287,32.788403 72.345833,32.792576 
	C67.624397,31.000000 61.255272,29.252773 55.552460,26.243019 
	C48.767937,22.662380 47.366695,16.073339 48.693565,8.083843 
	C51.957310,16.882008 59.014000,16.012999 65.887268,16.055641 
	C73.589409,16.103428 79.460838,20.318535 84.150543,24.693548 
	C88.947296,17.715706 93.790848,10.695841 98.584549,3.642093 
	C98.931129,3.132110 98.914757,2.375452 99.033569,1.366743 
	C101.700012,1.000000 104.400032,1.000000 107.550026,1.000001 
z"/>
<path fill="#000000" opacity="1.000000" stroke="none" 
	d="
M1.000001,110.468658 
	C2.148646,112.310020 3.540768,114.532410 4.408496,116.943527 
	C13.685321,142.720596 31.715933,159.952728 56.700153,170.191345 
	C61.674351,172.229782 67.181976,172.966553 72.241005,174.646103 
	C48.358929,174.992432 24.679464,174.996216 1.000000,175.000000 
	C1.000000,153.645767 1.000000,132.291550 1.000001,110.468658 
z"/>
<path fill="#FFFFFF" opacity="1.000000" stroke="none" 
	d="
M1.000000,175.500000 
	C24.679464,174.996216 48.358929,174.992432 72.499214,174.913864 
	C83.013596,174.887329 93.067162,174.935593 104.048019,174.986328 
	C128.236984,174.988800 151.498657,174.988800 174.841263,174.988800 
	C174.841263,150.318924 174.841263,126.187134 174.841263,102.055344 
	C174.888718,91.001068 174.936172,79.946785 174.911362,68.426178 
	C174.892731,45.952335 174.946365,23.944826 175.000000,1.468657 
	C175.998596,1.000000 176.997192,1.000000 177.996841,1.000000 
	C177.997894,59.249893 177.997894,117.499786 177.997894,176.000000 
	C119.000237,176.000000 60.000118,176.000000 1.000000,175.500000 
z"/>
<path fill="#000000" opacity="1.000000" stroke="none" 
	d="
M174.570282,102.319191 
	C174.841263,126.187134 174.841263,150.318924 174.841263,174.988800 
	C151.498657,174.988800 128.236984,174.988800 104.515366,174.915039 
	C111.649788,172.280472 119.428352,170.160004 126.803398,167.074905 
	C147.494537,158.419418 160.999329,142.681656 168.974930,122.102760 
	C171.399094,115.847855 172.559875,109.103317 174.570282,102.319191 
z"/>
</svg>