<?xml version="1.0" standalone="no"?>
<!DOCTYPE svg PUBLIC "-//W3C//DTD SVG 20010904//EN"
 "http://www.w3.org/TR/2001/REC-SVG-20010904/DTD/svg10.dtd">
<svg version="1.0" xmlns="http://www.w3.org/2000/svg"
 width="112.000000pt" height="115.000000pt" viewBox="0 0 112.000000 115.000000"
 preserveAspectRatio="xMidYMid meet">

<g transform="translate(0.000000,115.000000) scale(0.100000,-0.100000)"
fill="#000000" stroke="none">
<path d="M0 575 l0 -575 560 0 560 0 0 575 0 575 -560 0 -560 0 0 -575z m1080
5 l0 -530 -181 0 c-191 0 -190 -1 -149 40 3 3 15 19 27 37 21 29 21 33 7 47
-37 38 -55 40 -80 10 -13 -15 -24 -30 -24 -33 0 -3 -14 -21 -30 -40 l-29 -33
-68 48 c-37 27 -80 57 -95 66 -25 16 -27 20 -17 45 6 16 15 42 19 58 4 17 11
38 15 47 4 11 0 20 -15 28 -18 10 -29 6 -76 -30 l-55 -42 -43 39 c-23 21 -68
60 -99 86 l-57 48 35 64 36 63 -43 26 c-42 25 -43 25 -60 6 -10 -11 -18 -23
-18 -27 0 -4 -9 -21 -20 -38 l-20 -30 0 288 0 287 520 0 520 0 0 -530z"/>
<path d="M375 890 c-90 -68 -195 -164 -195 -179 0 -19 43 -41 57 -30 10 9 38
-10 119 -77 58 -49 113 -88 122 -87 24 2 102 -49 102 -68 0 -14 106 -97 178
-140 14 -9 21 -21 18 -31 -4 -18 9 -34 32 -40 8 -2 21 17 34 47 11 28 28 70
38 95 10 25 29 73 43 108 l26 62 -45 11 c-42 11 -44 13 -39 43 12 78 12 78
-25 91 -33 12 -35 14 -34 59 0 40 -2 46 -20 47 -31 1 -89 8 -102 13 -6 3 -21
25 -34 50 -12 25 -25 48 -29 51 -4 2 -25 -7 -45 -21 l-38 -26 -35 41 c-19 23
-38 41 -41 41 -4 0 -43 -27 -87 -60z"/>
<path d="M232 510 l-21 -60 60 -41 c33 -22 62 -39 63 -37 1 1 14 22 29 45 15
24 27 47 27 52 0 6 -26 27 -57 47 -32 21 -63 41 -69 46 -8 6 -18 -10 -32 -52z"/>
<path d="M528 289 l-27 -52 22 -17 c12 -10 33 -27 46 -39 35 -30 52 -26 87 22
l31 42 -38 24 c-21 13 -49 35 -63 48 -14 12 -26 23 -28 23 -2 0 -15 -23 -30
-51z"/>
</g>
</svg>
